<?xml version="1.0" encoding="UTF-8"?>
<svg width="12px" height="12px" viewBox="0 0 12 12" version="1.1" xmlns="http://www.w3.org/2000/svg" xmlns:xlink="http://www.w3.org/1999/xlink">
    <title>icon提示</title>
    <g id="页面-1" stroke="none" stroke-width="1" fill="none" fill-rule="evenodd">
        <g id="4.摄像头测试" transform="translate(-913.000000, -176.000000)" fill="#2276FF" fill-rule="nonzero">
            <g id="编组" transform="translate(913.000000, 166.000000)">
                <path d="M6.49963341,17.3041358 L6.49963341,17.5310888 C6.49963341,17.7900613 6.27580861,18 5.99970673,18 C5.72360484,18 5.49978004,17.7900613 5.49978004,17.5310888 L5.49978004,16.986214 C5.49978004,16.7686392 5.66075644,16.5942043 5.87472506,16.5407484 C7.00006001,16.0999719 7.00055994,15.4463097 6.99956009,15.418175 L6.99906016,14.6974585 C6.99906016,14.2791897 6.55062593,13.9378224 5.9992068,13.9378224 C5.4482876,13.9378224 4.99985336,14.2791897 4.99985336,14.6974585 L4.99985336,14.9258183 C4.99985336,15.1847907 4.77602856,15.3947294 4.49992668,15.3947294 C4.2238248,15.3947294 4,15.1847907 4,14.9258183 L4,14.6974585 C4,13.7619807 4.89686847,13 5.9992068,13 C7.10204506,13 7.99891352,13.7619807 7.99891352,14.6974585 L7.99891352,15.3947294 C8.00141316,15.4134859 8.07190282,16.5782613 6.49963341,17.3041358 M6.5,20 C6.22385763,20 6,19.7761424 6,19.5 C6,19.2238576 6.22385763,19 6.5,19 C6.77614237,19 7,19.2238576 7,19.5 C7,19.7761424 6.77614237,20 6.5,20 M6,10 C2.6915,10 0,12.692 0,16 C0,19.3085 2.6915,22 6,22 C9.3085,22 12,19.3085 12,16 C12,12.692 9.3085,10 6,10" id="icon提示"></path>
            </g>
        </g>
    </g>
</svg>