<?xml version="1.0" encoding="UTF-8"?>
<svg width="32px" height="28px" viewBox="0 0 32 28" version="1.1" xmlns="http://www.w3.org/2000/svg" xmlns:xlink="http://www.w3.org/1999/xlink">
    <!-- Generator: Sketch 53.1 (72631) - https://sketchapp.com -->
    <title>开关机压测</title>
    <desc>Created with Sketch.</desc>
    <g id="页面-1" stroke="none" stroke-width="1" fill="none" fill-rule="evenodd">
        <g id="5.系统可靠性" transform="translate(-545.000000, -544.000000)">
            <g id="开关机压测" transform="translate(546.000000, 545.000000)">
                <g id="编组-4备份">
                    <rect id="矩形" stroke="#444444" stroke-width="0.974025974" stroke-linejoin="round" x="4.26325641e-14" y="-2.13162821e-14" width="29.6133618" height="22.7924368" rx="1.81757869"></rect>
                    <rect id="矩形" fill="#444444" fill-rule="nonzero" x="2.43397494" y="25.9913753" width="24.7454119" height="1" rx="0.5"></rect>
                </g>
                <path d="M16.4516129,6.75 L12.5806452,15.4285714" id="直线-7" stroke="#1890FF" stroke-width="0.974025974" stroke-linecap="round"></path>
                <path d="M9.67741935,6.75 L5.98184178,10.4780883 C5.75654571,10.7053664 5.74726596,11.0482624 5.95999477,11.285357 L9.67741935,15.4285714 L9.67741935,15.4285714" id="路径-17" stroke="#1890FF" stroke-width="0.974025974" stroke-linecap="round"></path>
                <path d="M23.2258065,6.75 L19.5377528,10.4456586 C19.3024116,10.6814852 19.2929107,11.0738549 19.516532,11.322041 C19.5166993,11.3222268 19.5168668,11.3224124 19.5170344,11.3225979 L23.2258065,15.4285714 L23.2258065,15.4285714" id="路径-17备份" stroke="#1890FF" stroke-width="0.974025974" stroke-linecap="round" transform="translate(21.290323, 11.089286) scale(-1, 1) translate(-21.290323, -11.089286) "></path>
            </g>
        </g>
    </g>
</svg>