<?xml version="1.0" encoding="UTF-8"?>
<svg width="10px" height="10px" viewBox="0 0 10 10" version="1.1" xmlns="http://www.w3.org/2000/svg" xmlns:xlink="http://www.w3.org/1999/xlink">
    <!-- Generator: Sketch 58 (84663) - https://sketch.com -->
    <title>复选-已选</title>
    <desc>Created with Sketch.</desc>
    <g id="页面-1" stroke="none" stroke-width="1" fill="none" fill-rule="evenodd">
        <g id="自动化测试平台2备份-2" transform="translate(-240.000000, -415.000000)">
            <g id="复选-已选" transform="translate(240.000000, 415.000000)">
                <g id="Group-2">
                    <rect id="Rectangle-271-Copy-2" fill="#1890FF" x="0" y="0" width="10" height="10" rx="1.25"></rect>
                    <g id="Group" transform="translate(1.875000, 1.875000)">
                        <rect id="Rectangle" x="0" y="0" width="6.25" height="6.25"></rect>
                        <path d="M5.7655734,1.04442303 C5.88581585,1.15268982 5.89552404,1.33793315 5.78725726,1.4581756 L2.29324217,5.33867248 C2.25641673,5.37957127 2.21068569,5.40768207 2.16163601,5.42271208 C2.15009132,5.42613493 2.13841727,5.42940015 2.12662572,5.43192814 C2.12416876,5.43156432 2.12150172,5.43199897 2.11882986,5.43239676 C2.02175893,5.45151356 1.91802462,5.4201527 1.84721621,5.34151199 L1.84721621,5.34151199 L0.467082779,3.80871853 C0.358815993,3.68847608 0.368524185,3.50323275 0.488766633,3.39496596 C0.60900908,3.28669918 0.794252414,3.29640737 0.9025192,3.41664982 L0.9025192,3.41664982 L2.06782974,4.71116999 L5.35182083,1.06610688 C5.46008762,0.945864435 5.64533095,0.936156243 5.7655734,1.04442303 Z" id="Combined-Shape" fill="#FFFFFF"></path>
                    </g>
                </g>
            </g>
        </g>
    </g>
</svg>