<?xml version="1.0" encoding="UTF-8"?>
<svg width="9px" height="10px" viewBox="0 0 9 10" version="1.1" xmlns="http://www.w3.org/2000/svg" xmlns:xlink="http://www.w3.org/1999/xlink">
    <!-- Generator: Sketch 58 (84663) - https://sketch.com -->
    <title>btn-创建任务</title>
    <desc>Created with Sketch.</desc>
    <g id="页面-1" stroke="none" stroke-width="1" fill="none" fill-rule="evenodd">
        <g id="自动化测试平台2备份-2" transform="translate(-941.000000, -64.000000)">
            <g id="btn-icon和文字备份" transform="translate(932.000000, 58.000000)">
                <g id="发布节目">
                    <g id="btn/白/新建节目" transform="translate(8.000000, 5.333333)">
                        <g id="编组-2">
                            <g id="编组" opacity="0.85" transform="translate(3.327160, 3.327160)">
                                <g id="Group-189" transform="translate(0.435700, 0.435700)">
                                    <rect id="Rectangle-48-Copy-20" x="0" y="0" width="3.88168724" height="3.88168724"></rect>
                                </g>
                            </g>
                            <g id="Group-54">
                                <rect id="Rectangle-36" x="0" y="0" width="11.4074074" height="11.4074074"></rect>
                                <g id="plus" transform="translate(1.392506, 1.437066)" fill="#FFFFFF" fill-rule="nonzero">
                                    <path d="M8.22692419,3.86559606 L4.67881944,3.86559606 L4.67881944,0.40661169 C4.67881944,0.184924769 4.4994647,0.00557002315 4.27777778,0.00557002315 L4.27777778,0.00557002315 C4.05609086,0.00557002315 3.87673611,0.184924769 3.87673611,0.40661169 L3.87673611,3.86559606 L0.40661169,3.86559606 C0.184924769,3.86559606 0.00557002315,4.04495081 0.00557002315,4.26663773 L0.00557002315,4.26663773 C0.00557002315,4.48832465 0.184924769,4.6676794 0.40661169,4.6676794 L3.87673611,4.6676794 L3.87673611,8.13780382 C3.87673611,8.35949074 4.05609086,8.53884549 4.27777778,8.53884549 L4.27777778,8.53884549 C4.4994647,8.53884549 4.67881944,8.35949074 4.67881944,8.13780382 L4.67881944,4.6676794 L8.22692419,4.6676794 C8.44861111,4.6676794 8.62796586,4.48832465 8.62796586,4.26663773 L8.62796586,4.26663773 C8.62796586,4.04495081 8.44861111,3.86559606 8.22692419,3.86559606 Z" id="Shape"></path>
                                </g>
                            </g>
                        </g>
                    </g>
                </g>
            </g>
        </g>
    </g>
</svg>