<?xml version="1.0" encoding="UTF-8"?>
<svg width="56px" height="56px" viewBox="0 0 56 56" version="1.1" xmlns="http://www.w3.org/2000/svg" xmlns:xlink="http://www.w3.org/1999/xlink">
    <!-- Generator: Sketch 58 (84663) - https://sketch.com -->
    <title>icon_录制脚本</title>
    <desc>Created with Sketch.</desc>
    <g id="页面-1" stroke="none" stroke-width="1" fill="none" fill-rule="evenodd">
        <g id="自动化测试平台1备份" transform="translate(-702.000000, -347.000000)">
            <g id="编组-3" transform="translate(123.479212, 142.645514)">
                <g id="编组-2备份-2" transform="translate(532.445541, 161.724113)">
                    <g id="节目发布" transform="translate(46.075247, 42.630373)">
                        <g id="发布" transform="translate(3.732095, 3.110079)">
                            <path d="M44.4773728,4.76404854 L4.93252149,24.8338583 L13.6068036,31.1865336 C15.1048846,32.2867793 15.8791737,34.1002498 15.6322989,35.9247779 L14.7570156,42.3106265 L22.0342109,39.3416216 C23.5098488,38.7389744 25.1874751,38.8495518 26.5677296,39.6346518 L36.7344819,45.4178532 L44.4773728,4.76404854 Z M48.489088,1.99961194 L39.6577038,48.3868581 C39.5567096,48.9231588 39.1920082,49.3820553 38.687037,49.6087391 C38.1820659,49.8354229 37.5985437,49.8077785 37.1160157,49.5368637 L24.8564385,42.5594258 C24.3963537,42.2940398 23.8408854,42.2608666 23.3471359,42.459906 L13.3206533,46.5512722 C12.7539634,46.7834849 12.1031117,46.7005518 11.6205837,46.3301173 C11.132445,45.9596828 10.8855702,45.3680933 10.969732,44.7654462 L12.2377707,35.4769392 C12.3219326,34.8687631 12.0638362,34.266116 11.5644758,33.8956815 L0.690763881,25.9285752 C0.213846689,25.5802562 -0.0442496728,25.0163111 0.00624744159,24.4357794 C0.0567445559,23.8552477 0.404613566,23.3410625 0.932027871,23.0756766 L46.0203402,0.186141529 C46.6038624,-0.106888751 47.2996004,-0.0516000189 47.8270147,0.335421105 C48.3488182,0.716913356 48.6069146,1.36379152 48.489088,1.99408307 L48.489088,1.99961194 Z" id="形状" fill="#444444" fill-rule="nonzero"></path>
                            <path d="M37.352721,15.3453891 C38.069327,15.9640187 38.1426804,17.0340808 37.521998,17.7418823 L23.5510023,33.6256162 C22.9246774,34.3334176 21.8413046,34.411443 21.119056,33.7928134 C20.40245,33.1741837 20.3234541,32.1041217 20.949779,31.3907469 L34.9207747,15.5125863 C35.2198307,15.1726186 35.6430232,14.9608355 36.1000712,14.9329693 C36.5571191,14.8995299 37.0085244,15.0500074 37.352721,15.3453891 Z" id="路径" fill="#1890FF"></path>
                        </g>
                        <rect id="矩形" stroke="#979797" stroke-width="0.622015819" opacity="0" fill-rule="nonzero" x="0.311007909" y="0.311007909" width="55.3594079" height="55.3594079"></rect>
                    </g>
                </g>
            </g>
        </g>
    </g>
</svg>