<?xml version="1.0" encoding="UTF-8"?>
<svg width="56px" height="57px" viewBox="0 0 56 57" version="1.1" xmlns="http://www.w3.org/2000/svg" xmlns:xlink="http://www.w3.org/1999/xlink">
    <!-- Generator: Sketch 58 (84663) - https://sketch.com -->
    <title>icon_信源煲机</title>
    <desc>Created with Sketch.</desc>
    <g id="页面-1" stroke="none" stroke-width="1" fill="none" fill-rule="evenodd">
        <g id="自动化测试平台1备份" transform="translate(-435.000000, -184.000000)">
            <g id="编组-3" transform="translate(123.479212, 142.645514)">
                <g id="编组备份" transform="translate(265.520788, 1.354486)">
                    <g id="节目制作图标" transform="translate(73.788102, 68.960373) rotate(-270.000000) translate(-73.788102, -68.960373) translate(45.788102, 40.960373)">
                        <g id="编辑" transform="translate(8.052792, 4.940068)">
                            <path d="M39.0250668,41.9905751 L3.71667303,41.9905751 L3.71667303,9.26262687 L39.0250668,9.26262687 C40.0513978,9.26262687 40.8834034,8.43322301 40.8834034,7.41010149 C40.8834034,6.38697998 40.0513978,5.55757612 39.0250668,5.55757612 L3.71667303,5.55757612 C1.6640112,5.55757612 1.8189894e-12,7.21638384 1.8189894e-12,9.26262687 L1.8189894e-12,41.9905751 C1.8189894e-12,44.0368182 1.6640112,45.6956259 3.71667303,45.6956259 L39.0250668,45.6956259 C40.0513978,45.6956259 40.8834034,44.866222 40.8834034,43.8431005 C40.8834034,42.819979 40.0513978,41.9905751 39.0250668,41.9905751 Z" id="路径" fill="#444444" fill-rule="nonzero" transform="translate(20.441702, 25.626601) rotate(-90.000000) translate(-20.441702, -25.626601) "></path>
                            <path d="M32.4821127,17.2970165 L7.7817744,17.2970165 C6.41762397,17.2970165 5.31177594,16.5204924 5.31177594,15.5625889 L5.31177594,12.9608979 L34.9521819,12.9608979 L34.9521819,15.5625889 C34.9521819,16.5204924 33.8462631,17.2970165 32.4821127,17.2970165 Z" id="路径" fill="#1890FF" transform="translate(20.131979, 15.128957) rotate(-270.000000) translate(-20.131979, -15.128957) "></path>
                        </g>
                        <rect id="矩形" opacity="0.80750093" fill-rule="nonzero" x="1.13686838e-12" y="0" width="55.7500955" height="55.5757612"></rect>
                    </g>
                </g>
            </g>
        </g>
    </g>
</svg>