<?xml version="1.0" encoding="UTF-8"?>
<svg width="56px" height="56px" viewBox="0 0 56 56" version="1.1" xmlns="http://www.w3.org/2000/svg" xmlns:xlink="http://www.w3.org/1999/xlink">
    <!-- Generator: Sketch 58 (84663) - https://sketch.com -->
    <title>icon_待机压测</title>
    <desc>Created with Sketch.</desc>
    <g id="页面-1" stroke="none" stroke-width="1" fill="none" fill-rule="evenodd">
        <g id="自动化测试平台1备份" transform="translate(-170.000000, -348.000000)">
            <g id="icon/m/default/自动开机待机时间/default" transform="translate(170.000000, 348.000000)">
                <rect id="64" x="0" y="0" width="55.9814237" height="55.9814237"></rect>
                <g id="编组" transform="translate(3.498839, 3.498839)" fill-rule="nonzero">
                    <path d="M24.4372035,49.2958515 C10.9708213,49.2958515 0.0159103689,38.340493 0.0159103689,24.8745584 C0.0159103689,11.4086238 10.9708213,0.45320926 24.4372035,0.45320926 C37.9035857,0.45320926 48.8584967,11.4086237 48.8584967,24.8745584 C48.8584967,38.3404931 37.9035857,49.2958515 24.4372035,49.2958515 Z M24.4372035,4.21037436 C13.0429124,4.21037436 3.77301948,13.4802673 3.77301948,24.8745584 C3.77301948,36.2688495 13.0429124,45.5387424 24.4372035,45.5387424 C35.8314946,45.5387424 45.1013876,36.2688495 45.1013876,24.8745584 C45.1013876,13.4802673 35.8314946,4.21037436 24.4372035,4.21037436 Z" id="形状" fill="#444444"></path>
                    <path d="M30.8160486,35.7021419 L22.6389559,27.5249933 C22.2866746,27.1726928 22.0887516,26.6948854 22.0887516,26.196671 L22.0887516,13.1414735 L26.785152,13.1414735 L26.785152,25.0292421 L34.1370222,32.3811124 L30.8160486,35.7021419 Z" id="路径" fill="#1890FF"></path>
                </g>
            </g>
        </g>
    </g>
</svg>