<?xml version="1.0" encoding="UTF-8"?>
<svg width="38px" height="38px" viewBox="0 0 38 38" version="1.1" xmlns="http://www.w3.org/2000/svg" xmlns:xlink="http://www.w3.org/1999/xlink">
    <!-- Generator: Sketch 58 (84663) - https://sketch.com -->
    <title>首页图标</title>
    <desc>Created with Sketch.</desc>
    <defs>
        <linearGradient x1="100%" y1="49.9858837%" x2="-8.13927315%" y2="49.9858837%" id="linearGradient-1">
            <stop stop-color="#1890FF" offset="0%"></stop>
            <stop stop-color="#7DBCE4" offset="100%"></stop>
        </linearGradient>
        <linearGradient x1="49.2503392%" y1="0.644188491%" x2="49.2503392%" y2="96.0561746%" id="linearGradient-2">
            <stop stop-color="#FF5656" offset="0%"></stop>
            <stop stop-color="#FF7557" offset="53.2672507%"></stop>
            <stop stop-color="#FE6C6C" offset="100%"></stop>
        </linearGradient>
    </defs>
    <g id="页面-1" stroke="none" stroke-width="1" fill="none" fill-rule="evenodd">
        <g id="自动化测试平台1备份" transform="translate(-126.000000, -62.000000)">
            <g id="首页图标" transform="translate(140.500000, 76.500000) rotate(-315.000000) translate(-140.500000, -76.500000) translate(121.500000, 51.000000)">
                <path d="M36.3657128,10.840426 C37.2495878,11.7384534 37.2495878,13.2158535 36.3657128,14.1428496 C35.4818378,15.040877 34.0277209,15.040877 33.1153338,14.1428496 L26.8141604,7.74078279 C25.9302854,6.84275533 24.4761684,6.84275533 23.5637814,7.74078279 L7.71105557,23.8473399 C6.82718057,24.7453674 6.82718057,26.2227674 7.71105557,27.1497635 L23.5637814,43.2563207 C24.4476564,44.1543481 25.9017733,44.1543481 26.8141604,43.2563207 L33.1153338,36.8542539 C33.9992088,35.9562264 35.4533257,35.9562264 36.3657128,36.8542539 C37.2495878,37.7522814 37.2495878,39.2296814 36.3657128,40.1566775 L26.8141604,49.8611678 C25.9302854,50.7591953 24.4761684,50.7591953 23.5637814,49.8611678 L1.21029751,27.1497635 C0.326422514,26.2517361 0.326422514,24.774336 1.21029751,23.8473399 L23.5637814,1.13593562 C24.4476564,0.237908153 25.9017733,0.237908153 26.8141604,1.13593562 L36.3657128,10.840426 Z" id="Shape" fill="url(#linearGradient-1)"></path>
                <path d="M21.760149,18.2311726 L21.760149,18.2311726 C22.6303202,17.3478585 24.0618923,17.3478585 24.9601336,18.2311726 L31.1636125,24.5283472 C32.0337837,25.4116613 32.0337837,26.8648554 31.1636125,27.7766635 L24.9601336,34.0738381 C24.0899623,34.9571521 22.6583903,34.9571521 21.760149,34.0738381 L21.760149,34.0738381 C20.8899777,33.190524 20.8899777,31.7373298 21.760149,30.8255218 L24.7636433,27.7766635 C25.6338145,26.8933494 25.6338145,25.4401553 24.7636433,24.5283472 L21.760149,21.4794889 C20.8619077,20.5676808 20.8619077,19.1144867 21.760149,18.2311726 L21.760149,18.2311726 Z" id="Shape" fill="url(#linearGradient-2)"></path>
            </g>
        </g>
    </g>
</svg>